<svg xmlns="http://www.w3.org/2000/svg" viewBox="0 0 635.2 110.8" xmlns:c2pa="http://c2pa.org/manifest"><metadata><c2pa:manifest>AAAWgmp1bWIAAAAeanVtZGMycGEAEQAQgAAAqgA4m3EDYzJwYQAAABZcanVtYgAAAEdqdW1kYzJtYQARABCAAACqADibcQN1cm46YzJwYTo4ODFhOGNjNS0yOTYzLTRiYjEtOWFhYy0yM2UxNTE0MjMwNGMAAAADl2p1bWIAAAApanVtZGMyYXMAEQAQgAAAqgA4m3EDYzJwYS5hc3NlcnRpb25zAAAAALxqdW1iAAAARGp1bWRjYm9yABEAEIAAAKoAOJtxE2MycGEuaW5ncmVkaWVudC52MwAAAAAYYzJzaKMTJCUKxCi8BUJT4h8ILF4AAABwY2JvcqNpZGM6Zm9ybWF0bWltYWdlL3N2Zyt4bWxqaW5zdGFuY2VJRHgseG1wOmlpZDpkODIwNjRkNy0zZWQzLTQwYmUtYjk3Mi1hYWMxMDBjZDhiZWNscmVsYXRpb25zaGlwaHBhcmVudE9mAAAB4mp1bWIAAABBanVtZGNib3IAEQAQgAAAqgA4m3ETYzJwYS5hY3Rpb25zLnYyAAAAABhjMnNod9Sc/QaYzwnK1nETVo8YHQAAAZljYm9yomdhY3Rpb25zgqJmYWN0aW9ua2MycGEub3BlbmVkanBhcmFtZXRlcnOha2luZ3JlZGllbnRzgaJjdXJseC1zZWxmI2p1bWJmPWMycGEuYXNzZXJ0aW9ucy9jMnBhLmluZ3JlZGllbnQudjNkaGFzaFgg0UylVItc/uaHN2F69VdBjvFoRiaV+U0y3fV24+6X5PykZmFjdGlvbngdY29tLmFudGhyb3BpYy5jbGF1ZGUucHJvdmlkZWRqcGFyYW1ldGVyc6F4H2NvbS5hbnRocm9waWMub3JpZ2luLWNvbmZpZGVuY2VndW5rbm93bmtkZXNjcmlwdGlvbnhmQ2xhdWRlIHByb3ZpZGVkIHRoaXMgZmlsZSBhdCB0aGUgcmVxdWVzdCBvZiBhIHVzZXIgYW5kIG1heSBoYXZlIGNyZWF0ZWQgb3IgbW9kaWZpZWQgdGhlIGZpbGUgY29udGVudHMubXNvZnR3YXJlQWdlbnShZG5hbWVmQ2xhdWRlcmFsbEFjdGlvbnNJbmNsdWRlZPUAAADIanVtYgAAAEBqdW1kY2JvcgARABCAAACqADibcRNjMnBhLmhhc2guZGF0YQAAAAAYYzJzaLKrTqmtuvGIZ5wzq1aiH38AAACAY2JvcqVjYWxnZnNoYTI1NmNwYWRNAAAAAAAAAAAAAAAAAGRoYXNoWCDjAEf+f2AfLgnqXxvYBHf5QNuxubXl3tNH3aOumnCcg2RuYW1lbmp1bWJmIG1hbmlmZXN0amV4Y2x1c2lvbnOBomVzdGFydBiBZmxlbmd0aBkeBAAAAj5qdW1iAAAAJ2p1bWRjMmNsABEAEIAAAKoAOJtxA2MycGEuY2xhaW0udjIAAAACD2Nib3KlY2FsZ2ZzaGEyNTZpc2lnbmF0dXJleE1zZWxmI2p1bWJmPS9jMnBhL3VybjpjMnBhOjg4MWE4Y2M1LTI5NjMtNGJiMS05YWFjLTIzZTE1MTQyMzA0Yy9jMnBhLnNpZ25hdHVyZWppbnN0YW5jZUlEeCx4bXA6aWlkOjFmYTJhNzE5LWI1NzAtNGRmZi05NGU4LTAzYzQyMDYxNjYzM3JjcmVhdGVkX2Fzc2VydGlvbnODomN1cmx4LXNlbGYjanVtYmY9YzJwYS5hc3NlcnRpb25zL2MycGEuaW5ncmVkaWVudC52M2RoYXNoWCDRTKVUi1z+5oc3YXr1V0GO8WhGJpX5TTLd9Xbj7pfk/KJjdXJseCpzZWxmI2p1bWJmPWMycGEuYXNzZXJ0aW9ucy9jMnBhLmFjdGlvbnMudjJkaGFzaFggL2FfK0OUrrydXr4NXXIROr/pdpE2seoGCJz5XS+iDV2iY3VybHgpc2VsZiNqdW1iZj1jMnBhLmFzc2VydGlvbnMvYzJwYS5oYXNoLmRhdGFkaGFzaFggSoxa+nrzyRbFyrZRUiFNERuigfzOeqMU5F1bFAzhwYt0Y2xhaW1fZ2VuZXJhdG9yX2luZm+jZG5hbWVvQW50aHJvcGljIEZpbGVzZ3ZlcnNpb25lMS4wLjBrc3BlY1ZlcnNpb25lMi40LjAAABA4anVtYgAAAChqdW1kYzJjcwARABCAAACqADibcQNjMnBhLnNpZ25hdHVyZQAAABAIY2JvctKEWQISogEmGCFZAgowggIGMIIBjaADAgECAhRA5aAK7sI50L64g/oGQgU9Z1UTADAKBggqhkjOPQQDAzBJMRcwFQYDVQQKEw5BbnRocm9waWMsIFBCQzEuMCwGA1UEAxMlQW50aHJvcGljIENvbnRlbnQgQ3JlZGVudGlhbHMgUm9vdCBDQTAeFw0yNjA4MDcxODQzNTZaFw0yODA4MDYxOTQzNTZaMEQxFzAVBgNVBAoTDkFudGhyb3BpYywgUEJDMSkwJwYDVQQDEyBBbnRocm9waWMgQ2xhdWRlIENvbnRlbnQgU2lnbmluZzBZMBMGByqGSM49AgEGCCqGSM49AwEHA0IABJh6CmvLUBgFFNU0vUKlOVtE6djd17L5SuwX0LemFisBM3dkd/3cyjxFA3Qo5S46fX0/ihY0VZ7mfb9KF703t5OjWDBWMA4GA1UdDwEB/wQEAwIHgDAVBgNVHSUEDjAMBgorBgEEAYPoXgIBMAwGA1UdEwEB/wQCMAAwHwYDVR0jBBgwFoAUzlHiBIFOZFsj+OPEz5o+nMHXXMIwCgYIKoZIzj0EAwMDZwAwZAIwMXMdFJ4BetLLVY7ORuE9noqbbAZOZn/aArXyTwFAZfKrPzxF2vPoJNf1+UCdg1XGAjBwX1zd9WGqYkqmL5SFqw1QySjr1zJfpJM9+1rdDwSPLMOPOjKuiXjoU/pUUeG9RwmhY3BhZFkNngAAAAAAAAAAAAAAAAAAAAAAAAAAAAAAAAAAAAAAAAAAAAAAAAAAAAAAAAAAAAAAAAAAAAAAAAAAAAAAAAAAAAAAAAAAAAAAAAAAAAAAAAAAAAAAAAAAAAAAAAAAAAAAAAAAAAAAAAAAAAAAAAAAAAAAAAAAAAAAAAAAAAAAAAAAAAAAAAAAAAAAAAAAAAAAAAAAAAAAAAAAAAAAAAAAAAAAAAAAAAAAAAAAAAAAAAAAAAAAAAAAAAAAAAAAAAAAAAAAAAAAAAAAAAAAAAAAAAAAAAAAAAAAAAAAAAAAAAAAAAAAAAAAAAAAAAAAAAAAAAAAAAAAAAAAAAAAAAAAAAAAAAAAAAAAAAAAAAAAAAAAAAAAAAAAAAAAAAAAAAAAAAAAAAAAAAAAAAAAAAAAAAAAAAAAAAAAAAAAAAAAAAAAAAAAAAAAAAAAAAAAAAAAAAAAAAAAAAAAAAAAAAAAAAAAAAAAAAAAAAAAAAAAAAAAAAAAAAAAAAAAAAAAAAAAAAAAAAAAAAAAAAAAAAAAAAAAAAAAAAAAAAAAAAAAAAAAAAAAAAAAAAAAAAAAAAAAAAAAAAAAAAAAAAAAAAAAAAAAAAAAAAAAAAAAAAAAAAAAAAAAAAAAAAAAAAAAAAAAAAAAAAAAAAAAAAAAAAAAAAAAAAAAAAAAAAAAAAAAAAAAAAAAAAAAAAAAAAAAAAAAAAAAAAAAAAAAAAAAAAAAAAAAAAAAAAAAAAAAAAAAAAAAAAAAAAAAAAAAAAAAAAAAAAAAAAAAAAAAAAAAAAAAAAAAAAAAAAAAAAAAAAAAAAAAAAAAAAAAAAAAAAAAAAAAAAAAAAAAAAAAAAAAAAAAAAAAAAAAAAAAAAAAAAAAAAAAAAAAAAAAAAAAAAAAAAAAAAAAAAAAAAAAAAAAAAAAAAAAAAAAAAAAAAAAAAAAAAAAAAAAAAAAAAAAAAAAAAAAAAAAAAAAAAAAAAAAAAAAAAAAAAAAAAAAAAAAAAAAAAAAAAAAAAAAAAAAAAAAAAAAAAAAAAAAAAAAAAAAAAAAAAAAAAAAAAAAAAAAAAAAAAAAAAAAAAAAAAAAAAAAAAAAAAAAAAAAAAAAAAAAAAAAAAAAAAAAAAAAAAAAAAAAAAAAAAAAAAAAAAAAAAAAAAAAAAAAAAAAAAAAAAAAAAAAAAAAAAAAAAAAAAAAAAAAAAAAAAAAAAAAAAAAAAAAAAAAAAAAAAAAAAAAAAAAAAAAAAAAAAAAAAAAAAAAAAAAAAAAAAAAAAAAAAAAAAAAAAAAAAAAAAAAAAAAAAAAAAAAAAAAAAAAAAAAAAAAAAAAAAAAAAAAAAAAAAAAAAAAAAAAAAAAAAAAAAAAAAAAAAAAAAAAAAAAAAAAAAAAAAAAAAAAAAAAAAAAAAAAAAAAAAAAAAAAAAAAAAAAAAAAAAAAAAAAAAAAAAAAAAAAAAAAAAAAAAAAAAAAAAAAAAAAAAAAAAAAAAAAAAAAAAAAAAAAAAAAAAAAAAAAAAAAAAAAAAAAAAAAAAAAAAAAAAAAAAAAAAAAAAAAAAAAAAAAAAAAAAAAAAAAAAAAAAAAAAAAAAAAAAAAAAAAAAAAAAAAAAAAAAAAAAAAAAAAAAAAAAAAAAAAAAAAAAAAAAAAAAAAAAAAAAAAAAAAAAAAAAAAAAAAAAAAAAAAAAAAAAAAAAAAAAAAAAAAAAAAAAAAAAAAAAAAAAAAAAAAAAAAAAAAAAAAAAAAAAAAAAAAAAAAAAAAAAAAAAAAAAAAAAAAAAAAAAAAAAAAAAAAAAAAAAAAAAAAAAAAAAAAAAAAAAAAAAAAAAAAAAAAAAAAAAAAAAAAAAAAAAAAAAAAAAAAAAAAAAAAAAAAAAAAAAAAAAAAAAAAAAAAAAAAAAAAAAAAAAAAAAAAAAAAAAAAAAAAAAAAAAAAAAAAAAAAAAAAAAAAAAAAAAAAAAAAAAAAAAAAAAAAAAAAAAAAAAAAAAAAAAAAAAAAAAAAAAAAAAAAAAAAAAAAAAAAAAAAAAAAAAAAAAAAAAAAAAAAAAAAAAAAAAAAAAAAAAAAAAAAAAAAAAAAAAAAAAAAAAAAAAAAAAAAAAAAAAAAAAAAAAAAAAAAAAAAAAAAAAAAAAAAAAAAAAAAAAAAAAAAAAAAAAAAAAAAAAAAAAAAAAAAAAAAAAAAAAAAAAAAAAAAAAAAAAAAAAAAAAAAAAAAAAAAAAAAAAAAAAAAAAAAAAAAAAAAAAAAAAAAAAAAAAAAAAAAAAAAAAAAAAAAAAAAAAAAAAAAAAAAAAAAAAAAAAAAAAAAAAAAAAAAAAAAAAAAAAAAAAAAAAAAAAAAAAAAAAAAAAAAAAAAAAAAAAAAAAAAAAAAAAAAAAAAAAAAAAAAAAAAAAAAAAAAAAAAAAAAAAAAAAAAAAAAAAAAAAAAAAAAAAAAAAAAAAAAAAAAAAAAAAAAAAAAAAAAAAAAAAAAAAAAAAAAAAAAAAAAAAAAAAAAAAAAAAAAAAAAAAAAAAAAAAAAAAAAAAAAAAAAAAAAAAAAAAAAAAAAAAAAAAAAAAAAAAAAAAAAAAAAAAAAAAAAAAAAAAAAAAAAAAAAAAAAAAAAAAAAAAAAAAAAAAAAAAAAAAAAAAAAAAAAAAAAAAAAAAAAAAAAAAAAAAAAAAAAAAAAAAAAAAAAAAAAAAAAAAAAAAAAAAAAAAAAAAAAAAAAAAAAAAAAAAAAAAAAAAAAAAAAAAAAAAAAAAAAAAAAAAAAAAAAAAAAAAAAAAAAAAAAAAAAAAAAAAAAAAAAAAAAAAAAAAAAAAAAAAAAAAAAAAAAAAAAAAAAAAAAAAAAAAAAAAAAAAAAAAAAAAAAAAAAAAAAAAAAAAAAAAAAAAAAAAAAAAAAAAAAAAAAAAAAAAAAAAAAAAAAAAAAAAAAAAAAAAAAAAAAAAAAAAAAAAAAAAAAAAAAAAAAAAAAAAAAAAAAAAAAAAAAAAAAAAAAAAAAAAAAAAAAAAAAAAAAAAAAAAAAAAAAAAAAAAAAAAAAAAAAAAAAAAAAAAAAAAAAAAAAAAAAAAAAAAAAAAAAAAAAAAAAAAAAAAAAAAAAAAAAAAAAAAAAAAAAAAAAAAAAAAAAAAAAAAAAAAAAAAAAAAAAAAAAAAAAAAAAAAAAAAAAAAAAAAAAAAAAAAAAAAAAAAAAAAAAAAAAAAAAAAAAAAAAAAAAAAAAAAAAAAAAAAAAAAAAAAAAAAAAAAAAAAAAAAAAAAAAAAAAAAAAAAAAAAAAAAAAAAAAAAAAAAAAAAAAAAAAAAAAAAAAAAAAAAAAAAAAAAAAAAAAAAAAAAAAAAAAAAAAAAAAAAAAAAAAAAAAAAAAAAAAAAAAAAAAAAAAAAAAAAAAAAAAAAAAAAAAAAAAAAAAAAAAAAAAAAAAAAAAAAAAAAAAAAAAAAAAAAAAAAAAAAAAAAAAAAAAAAAAAAAAAAAAAAAAAAAAAAAAAAAAAAAAAAAAAAAAAAAAAAAAAAAAAAAAAAAAAAAAAAAAAAAAAAAAAAAAAAAAAAAAAAAAAAAAAAAAAAAAAAAAAAAAAAAAAAAAAAAAAAAAAAAAAAAAAAAAAAAAAAAAAAAAAAAAAAAAAAAAAAAAAAAAAAAAAAAAAAAAAAAAAAAAAAAAAAAAAAAAAAAAAAAAAAAAAAAAAAAAAAAAAAAAAAAAAAAAAAAAAAAAAAAAAAAAAAAAAAAAAAAAAAAAAAAAAAAAAAAAAAAAAAAAAAAAAAAAAAAAAAAAAAAAAAAAAAAAAAAAAAAAAAAAAAAAAAAAAAAAAAAAAAAAAAAAAAAAAAAAAAAAAAAAAAAAAAAAAAAAAAAAAAAAAAAAAAAAAAAAAAAAAAAAAAAAAAAAAAAAAAAAAAAAAAAAAAAAAAAAAAAAAAAAAAAAAAAAAAAAAAAAAAAAAAAAAAAAAAAAAAAAAAAAAAAAAAAAAAAAAAAAAAAAAAAAAAAAAAAAAAAAAAAAAAAAAAAAAAAAAAAAAAAAAAAAAAAAAAAAAAAAAAAAAAAAAAAAAAAAAAAAAAAAAAAAAAAAAAAAAAAAAAAAAAAAAAAAAAAAAAAAAAAAAAAAAAAAAAAAAAAAAAAAAAAAAAAAAAAAAAAAAAAAAAAAAAAAAAAAAAAAAAAAAAAAAAAAAAAAAAAAAAAAAAAAAAAAAAAAAAAAAAAAAAAAAAAAAAAAAAAAAAAAAAAAAAAAAAAAAAAAAAAAAAAAAAAAAAAAAAAAAAAAAAAAAAAAAAAAAAAAAAAAAAAAAAAAAAAAAAAAAAAAAAAAAAAAAAAAAAAAAAAAAAAAAAAAAAAAAAAAAAAAAAAAAAAAAAAAAAAAAAAAAAAAAAAAAAAAAAAAAAAAAAAAAAAAAAAAAAAAAAAAAAAAAAAAAAAAAAAAAAAAAAAAAAAAAAAAAAAAAAAAAAAAAAAAAAAAAAAAAAAAAAAAAAAAAAAAAAAAAAAAAAAAAAAAAAAAAAAAAAAAAAAAAAAAAAAAAAAAAAAAAAAAAAAAAAAAAAAAAAAAAAAAAAAAAAAAAAAAAAAAAAAAAAAAAAAAAAAAAAAAAAAAAAAAAAAAAAAAAAAAAAAAAAAAAAAAAAAAAAAAAAAAAAAAAAAAAAAAAAAAAAAAAAAAAAAAAAAAAAAAAAAAAAAAAAAAAAAAAAAAAAAAAAAAAPZYQANKgozYntXFyLZfBBlEP9gqzbwHVEzkpOL5rpiguPvv15DKq6WH11Tk6zxOSsSi7W/n97zawAwTzbvd60TsFp4=</c2pa:manifest></metadata><path fill="#fff" d="M52.2 0.1C51.8 0.2 51.2 0.3 50.9 0.3C47.9 0.4 40.5 2.1 36 3.8C17.3 10.9 4.7 25.7 0.8 45.3C-0.7 52.8 -0.1 63.7 2.2 71.2C2.4 71.7 2.6 72.5 2.7 72.9C3.6 76 7.7 84.1 10.3 87.6C12.8 91.3 18.3 96.8 21.9 99.4C30.4 105.5 38.9 108.9 48.7 110.1C49.6 110.2 50.7 110.4 51.2 110.5C51.7 110.5 53.4 110.7 55.1 110.7C58 110.9 58.8 110.8 63.6 110.5C77.5 109.3 91.1 102.5 99.8 92.5C101.4 90.6 101.7 91.2 96.1 86.4C95.1 85.5 93.3 84 92.3 83C87.8 78.8 88.6 78.9 85.4 82.1C81.8 85.6 80.4 86.7 77.5 88.5C73.8 90.8 66.9 93.2 63 93.6C62.6 93.7 61.8 93.8 61.2 93.9C59.8 94.2 54.7 94.2 53.1 93.9C52.5 93.8 51.2 93.6 50.1 93.4C36 90.9 24.6 81.2 20.1 67.8C14.7 51.6 20.5 33.4 34.3 23.7C36 22.4 39.9 20.4 41.4 19.9C41.8 19.8 42.3 19.6 42.6 19.4C46.1 17.7 56 16.3 60.4 16.9C60.9 17 61.8 17.1 62.4 17.2C63.7 17.3 67.6 18.1 68.3 18.4C68.5 18.5 69.2 18.7 69.7 18.8C72.2 19.5 75.9 21.2 78.4 22.7C80.6 24 83.8 26.6 86.2 29C88.2 30.8 88.3 30.9 89.8 29.5C90.3 29 92.2 27.4 94 25.8C100.7 20 100.8 19.8 99.7 18.5C97.2 15.4 95.8 14.1 93.4 12.2C90.6 10 88.9 8.8 84.8 6.5C80.5 4 73.3 1.6 67.4 0.8C66.8 0.8 65.8 0.6 65.1 0.5C62.2 0.1 60.9 0 57 0C53.8 -0 52.7 0 52.2 0.1ZM394.2 0.9C385.5 2.2 377.9 8.2 375.6 15.6C375.4 16 375.1 17 374.9 17.6C374.7 18.3 374.4 19.6 374.3 20.4C374.2 21.3 374 22.2 373.9 22.5C373.9 22.8 373.8 23.3 373.8 23.6C373.8 24 373.7 24.8 373.6 25.4C373.5 26.2 373.4 27.4 373.4 29.4C373.5 32.2 373.5 32.2 373.2 32.5L372.9 32.8L367.2 32.9C360.9 32.9 361.1 32.9 360.8 33.8C360.6 34.5 360.8 47.4 361 47.7C361.3 48 361.7 48.1 367.2 48.1C373.3 48.2 373 48.2 373.3 49C373.4 49.2 373.4 60.6 373.5 78.7C373.5 109.6 373.5 108.4 374.1 108.6C374.6 108.9 389.1 108.9 389.5 108.6C390 108.3 390 108.1 390 78.4C390 57.3 390.1 49.2 390.2 48.9C390.4 48.1 389.9 48.1 399.9 48.1L409.2 48L409.5 47.7L409.8 47.3L409.8 40.7C409.9 33.7 409.8 33.4 409.3 33.1C409 33 406.8 32.9 399.8 32.9L390.7 32.9L390.3 32.5L390 32.2L390 29.7C390 22.2 393 17.7 398.7 16.6C401.2 16.2 404.7 16.5 407.2 17.4C409.7 18.4 410 18 410.6 13.3C410.7 12.4 410.9 11 411.1 10.1C411.5 6.8 411.8 3.8 411.5 3.3C411.2 2.6 408.4 1.6 404.5 0.9C402.5 0.5 396.6 0.5 394.2 0.9ZM257.2 2.7C255.6 2.8 255.4 3 255.5 4.5C255.5 7.7 255.4 40.9 255.3 41.1C255 41.6 254.5 41.4 253.3 40.2C246.9 33.7 237.5 30.8 226.5 31.8C224.3 32 223.9 32 221.4 32.6C206.2 36.3 195.2 49.3 193.3 65.8C193.2 66.4 193.1 67.4 193 68.1C192.9 69.5 193 73.7 193.2 75.2C193.7 78.7 193.9 79.9 194.3 81.8C197.8 97 210.3 108.4 225.4 110.1C226 110.2 226.8 110.3 227.2 110.3C228.5 110.6 233.6 110.5 235.6 110.2C242.8 109.2 248.4 106.5 253.1 101.7C255.8 99.1 255.7 99 255.8 104.1C255.9 108.2 255.9 108.4 256.5 108.7C256.7 108.8 259 108.8 264.1 108.8C272 108.8 271.8 108.9 272.1 108.1C272.3 107.6 272.2 3.6 272.1 3.2C271.7 2.6 271.5 2.6 264.7 2.6C261.2 2.6 257.8 2.7 257.2 2.7ZM237.4 47.7C246 49.4 254 57.6 255.2 65.9C255.3 66.4 255.4 67.3 255.5 67.8C255.7 69.1 255.7 72.8 255.5 73.8C255.4 74.3 255.2 75.2 255.1 75.9C254.7 78.6 253.2 82.4 251.3 85.2C248.3 89.6 242.2 93.6 237.4 94.4C236.8 94.5 235.9 94.7 235.4 94.8C230.5 95.9 222.3 93.2 217.7 89C214.1 85.8 211 80.4 210.5 76.4C210.4 76 210.3 75.2 210.2 74.6C209.8 72.9 209.8 69.5 210.2 67.7C210.3 67 210.5 66 210.5 65.4C211.4 59.4 216.4 52.7 222.3 49.7C226.8 47.4 232.5 46.7 237.4 47.7ZM426.4 2.7C418.5 3.6 414.7 13.7 420.1 19.6C427.9 28 441.6 19.2 437 8.7C435.1 4.3 431.3 2.2 426.4 2.7ZM534.3 2.7L532.2 2.8L531.9 3.1L531.6 3.5L531.6 55.8L531.6 108.1L531.9 108.5L532.3 108.8L539.8 108.8C545 108.8 547.4 108.8 547.6 108.7C548.2 108.4 548.2 111.6 548.2 55.5L548.2 3.3L547.9 3L547.6 2.6L542 2.6C538.9 2.6 535.4 2.7 534.3 2.7ZM619.5 2.7C618.3 2.9 618.4 0.1 618.4 26C618.4 37.1 618.3 40.7 618.2 40.9C617.9 41.5 617.4 41.3 616.1 40C606.5 30.8 590.5 28.8 577.2 35.1C568.3 39.4 561.2 47.4 558.1 56.8C557.1 59.6 556.1 64.5 556.1 66.1C556.1 66.4 556 67.1 555.9 67.7C555.7 68.9 555.6 72.7 555.8 73.5C555.9 73.8 556 74.9 556.1 76C556.2 77.1 556.4 78.5 556.6 79.2C556.7 79.9 556.9 81 557.1 81.6C557.3 82.8 558 85 558.6 86.7C562.5 97.5 573.6 107.2 584.5 109.3C584.9 109.4 585.8 109.6 586.4 109.8C588.9 110.4 595 110.7 596.9 110.3C597.3 110.3 598.2 110.1 598.9 110.1C604.8 109.5 611.3 106.2 615.7 101.8C617.7 99.8 618.4 99.4 618.4 100.4C618.4 100.5 618.5 102.2 618.5 104.3C618.6 108.3 618.6 108.6 619.3 108.8C619.5 108.8 622.4 108.9 626.9 108.9C635 108.9 634.8 108.9 635.1 108.1C635.2 107.7 635.2 3.5 635.1 3.2C634.8 2.7 634.7 2.7 627.2 2.6C623.3 2.6 619.8 2.6 619.5 2.7ZM597.5 47.2C609.8 48.6 618.9 59.1 618.5 71.2C618.3 76.8 616.6 81.6 613.5 85.9C610.4 90.1 604.8 93.7 600.6 94.2C600 94.3 599.1 94.5 598.6 94.6C593 96 584.3 93.1 579.7 88.3C577.3 85.9 574.8 81.8 574.3 79.6C574.1 79.2 573.9 78.5 573.8 78.1C573.6 77.6 573.4 76.8 573.3 76.3C573.2 75.7 573.1 74.7 572.9 74.1C572.6 72.5 572.6 69.3 572.9 68.1C573 67.7 573.1 66.8 573.2 66.2C573.8 60.6 578.1 54.1 583.3 50.8C587.4 48.2 593.3 46.7 597.5 47.2ZM483.9 31.5C478.1 31.7 475 32.2 470.2 33.9C460.7 37.2 452.6 44.5 448.7 53.5C446.6 58.1 445.8 61.2 445 67.2C444.8 68.9 444.9 73.1 445.1 74.5C445.2 75.1 445.3 75.8 445.3 76C445.3 80.3 448 88.2 451.2 93.3C459.3 106.4 476.5 113 494 109.8C503.3 108.1 510.9 103.7 516.5 96.8C518.5 94.3 519.2 95.2 511 89.1C509.1 87.7 507.1 86.2 506.6 85.9C505.4 85 505.1 85 504.1 86.3C500.8 90.3 496.3 93.3 492.1 94.2C491.5 94.4 490.4 94.6 489.7 94.8C482.5 96.4 472.2 92.9 467.3 87.1C464.3 83.7 461.9 78.2 462.9 77.3C463.2 77.1 464.1 77.1 492.4 77.1C524.4 77.1 522.1 77.1 522.5 76.4C522.7 75.6 522.7 68.6 522.4 66.3C522 63.2 522 62.8 521.4 60.7C519 50.8 515 44.4 507.8 38.8C505.3 36.9 500.5 34.3 498.6 33.9C498.4 33.8 497.9 33.7 497.5 33.5C496.3 33 491.5 31.8 490.3 31.8C489.6 31.7 488.5 31.6 487.9 31.5C487.2 31.4 486.5 31.3 486.4 31.4C486.3 31.4 485.2 31.4 483.9 31.5ZM488.5 47.4C492.3 48.2 494.9 49.2 497.5 51.1C500.2 53.1 503.4 57.4 504.2 60.2C504.3 60.6 504.5 61.3 504.7 61.7C505 62.4 505 62.9 504.5 63.1C504.1 63.4 463.8 63.5 463.3 63.2C462.7 62.9 462.7 62.6 463.7 60.2C466.4 53.9 472.3 49.1 479.1 47.8C480 47.6 481.1 47.4 481.5 47.3C482.7 47 486.7 47.1 488.5 47.4ZM144.4 31.5C144.4 31.5 143.4 31.6 142.2 31.7C137.4 32 132.1 33.6 127.2 36.1C119.7 40 112.9 47.1 110 54.2C108 59.2 107.4 61.6 106.8 66.5C106.7 67.2 106.6 68.1 106.6 68.5C106.4 69.6 106.4 72.5 106.6 74.1C106.7 74.9 106.9 76.4 107.1 77.6C107.3 79.7 108.1 83.1 108.6 84.1C108.7 84.4 109 85.1 109.2 85.8C109.9 87.8 111.8 91.4 113.5 94C119.4 102.7 130.3 109.1 141 110.2C161.6 112.5 179.2 101.3 184.8 82.3C185.4 80.3 186.2 76.4 186.2 75.6C186.2 75.3 186.3 74.3 186.4 73.5C186.6 71.6 186.6 70 186.4 68.4C186.3 67.7 186.2 66.9 186.2 66.5C186.2 66.2 186.1 65.5 186 65C185.9 64.6 185.7 63.6 185.6 62.8C183.4 50.6 174.4 39.5 163 34.8C160.5 33.8 158.9 33.3 156.4 32.6C153.8 32 153.1 31.8 152.4 31.8C152 31.8 151.1 31.7 150.5 31.6C149.5 31.5 144.6 31.4 144.4 31.5ZM149.4 47.5C150.1 47.6 151.2 47.8 151.9 48C160.4 49.6 167.9 57.8 169 66.7C169.1 67.3 169.2 68.1 169.3 68.6C171 79.8 161.9 92.4 150.8 94.4C150.2 94.5 149.4 94.7 148.9 94.8C147 95.2 144.8 95 140.8 94.1C131 92.1 123.6 82.3 123.3 71.3C123.3 69.1 123.3 68.8 124 65.1C125.1 59.5 128.7 54.3 134 50.9C138.1 48.1 145 46.6 149.4 47.5ZM316.4 31.6C316.1 31.6 315.5 31.7 315.1 31.7C313.4 31.7 308.4 32.7 305.8 33.6C303 34.5 302.2 34.9 298.9 36.7C293.7 39.5 288.5 44.8 285 50.9C284.4 52 284.2 52.4 283 55.2C279.2 64 279.1 77.1 282.8 86.4C283 87 283.2 87.5 283.2 87.6C283.2 87.8 284.3 90.1 284.9 91.3C292.4 104.3 306.7 111.5 322.7 110.5C326.5 110.2 329.5 109.8 331.2 109.4C339.9 107.1 346.1 103.2 351.8 96.4C353.3 94.7 353.3 94.4 351.7 93.3C351.2 92.9 350.3 92.3 349.7 91.9C347.9 90.6 343.2 87.1 342.1 86.3C340.9 85.3 340.9 85.3 340.5 85.4C340.4 85.4 339.4 86.4 338.3 87.5C334.6 91.2 331 93.4 327.2 94.2C326.6 94.3 325.6 94.6 324.9 94.7C323.8 95 323.4 95 320.3 95L316.9 95L314.7 94.4C306.9 92.4 301.8 88.3 298.9 81.6C298.2 80.1 297.7 78.1 297.8 77.8C298.1 77.1 295.9 77.1 327.6 77.1L356.8 77L357.1 76.7C357.4 76.4 357.5 75.4 357.5 71C357.6 65.5 356.8 60.9 355.1 55.9C352.3 47.4 345.2 39.2 337.7 35.6C333.9 33.8 328.4 32.1 325.3 31.8C324.6 31.8 323.7 31.6 323.3 31.6C322.5 31.4 317.3 31.4 316.4 31.6ZM323 47.3C330.8 48.6 337.4 53.7 339.4 60.1C339.5 60.5 339.8 61.2 339.9 61.6C340.2 62.4 340.1 63.1 339.5 63.3C339.4 63.3 330.1 63.4 318.9 63.4L298.5 63.3L298.2 63.1C297.8 62.7 297.8 62.3 298.3 61.2C298.5 60.8 298.9 60 299.1 59.5C301.3 54 307.5 49.1 313.6 47.8C314.4 47.7 315.4 47.5 315.9 47.4C317.4 47 321.2 47 323 47.3ZM423 32.9C418.9 33 419.3 32.5 419.3 37.3C419.3 87.1 419.3 107.9 419.5 108.2C419.8 108.8 419.7 108.8 427.7 108.8L435.2 108.8L435.5 108.5L435.9 108.2L435.9 70.9L435.9 33.5L435.6 33.2L435.3 32.9L430.7 32.9C428.2 32.9 424.7 32.9 423 32.9Z"/></svg>
